<?xml version="1.0" encoding="UTF-8"?>
<!DOCTYPE svg PUBLIC "-//W3C//DTD SVG 1.1//EN" "http://www.w3.org/Graphics/SVG/1.1/DTD/svg11.dtd">
<!-- Creator: CorelDRAW -->
<svg xmlns="http://www.w3.org/2000/svg" xml:space="preserve" width="5.79362in" height="5.79362in" version="1.1" style="shape-rendering:geometricPrecision; text-rendering:geometricPrecision; image-rendering:optimizeQuality; fill-rule:evenodd; clip-rule:evenodd"
viewBox="0 0 666.95 666.95"
 xmlns:xlink="http://www.w3.org/1999/xlink"
 xmlns:xodm="http://www.corel.com/coreldraw/odm/2003">
 <defs>
  <style type="text/css">
   <![CDATA[
    .str0 {stroke:#BACAD6;stroke-width:23.98;stroke-miterlimit:2.61313}
    .fil2 {fill:#0071BD}
    .fil0 {fill:#BACAD6}
    .fil1 {fill:#FA931D}
   ]]>
  </style>
 </defs>
 <g id="Layer_x0020_1">
  <metadata id="CorelCorpID_0Corel-Layer"/>
  <circle class="fil0 str0" cx="333.48" cy="333.48" r="321.48"/>
  <g id="_2314014932800">
   <path class="fil1" d="M290.92 565.97c2.99,9.02 8.1,13.57 19.09,13.91 10.97,0.33 22.51,0 33.55,0 29.47,0 38.98,3.03 38.97,-27.95 -0.01,-38.68 -4.84,-32.36 -67.34,-32.51 -5.2,-0.01 -10.17,-0.16 -14.42,1.74 -4.84,2.16 -5.52,4.96 -8.79,8.04 -18.84,-2.49 -42.2,-12 -55.93,-20.22 -16.43,-9.84 -30.35,-22.52 -40.7,-36.68 -5.97,-8.16 -27.34,-44.82 -23.5,-51.73 2.86,-5.15 10.46,-9.49 10.78,-27.66 0.35,-20.48 1.24,-104.03 -1.09,-113.91 -3.27,-13.86 -9.21,-13.77 -8.6,-18.95 0.73,-6.18 10.99,-30.49 13.48,-35.51 17.59,-35.35 41.44,-63.86 73.1,-81.65 78.06,-43.84 162.41,-11.64 207.98,60.7 10.02,15.9 17.81,33.23 24.01,53.34 4.15,13.48 -5.41,8.42 -6.68,28.66 -0.69,11.1 -0.67,108.31 0.55,114.99 4.46,24.25 23.43,32.43 46.07,32.3 0,-57.18 -0.11,-114.36 -0.08,-171.53 0.01,-22.15 -11.35,-45.68 -21.99,-64.35 -30.51,-53.52 -81.07,-98.4 -149.67,-108.28 -51.68,-7.44 -102.08,9.22 -134.96,33.18 -31.09,22.66 -57.65,52.26 -76.54,94.55 -16.15,36.15 -12.16,34.02 -12.16,74.13l0.1 128.95c0.06,16.71 0.81,18.58 7.77,35.45 25.12,60.85 75.08,98.46 147.02,110.98z"/>
   <path class="fil2" d="M182.25 262.67c27.56,1.89 48.05,-9.1 63.73,-27.53 5.14,-6.04 7.02,-11.29 11.61,-19.14l17.13 21.37c1.99,2.19 7.49,7.46 9.66,9.25 3.75,3.09 6.88,5.89 11.01,8.76 14.87,10.35 32.14,18.97 53.88,23.58 23.35,4.95 47.2,5.27 71.68,2.25 14.69,-1.82 52.78,-9.48 63.03,-15.53 -1.34,-12.48 -14.62,-40.2 -20.22,-49.71 -8.7,-14.78 -20.55,-30.32 -30.75,-39.73 -41.41,-38.24 -98.34,-56.42 -156.53,-30.07 -7.88,3.57 -15.97,8 -22.59,12.66 -14.34,10.08 -25.66,20.59 -36.41,34.08 -12.17,15.27 -34.26,53.12 -35.22,69.8z"/>
   <path class="fil1" d="M542.29 432.81c30,1.99 49.82,-12.99 49.82,-41.64l0 -100.58c0,-27.31 -20.72,-45.69 -49.82,-41.35l0.01 183.57z"/>
   <path class="fil1" d="M124.73 432.79l0.47 -183.66c-24.4,-2.37 -39.64,7.35 -46.86,23.82 -5.16,11.77 -3.08,52.46 -3.08,68.36 0,15.85 -2.11,55.55 3.13,67.45 7.21,16.39 22.09,25.92 46.34,24.04z"/>
  </g>
 </g>
</svg>
